<?xml version="1.0" encoding="UTF-8" standalone="no"?>
<!-- Created with Inkscape (http://www.inkscape.org/) -->

<svg
   width="965.23431mm"
   height="200.00002mm"
   viewBox="0 0 965.23431 200.00002"
   version="1.1"
   id="svg1"
   xml:space="preserve"
   sodipodi:docname="nyoal-ai.svg"
   inkscape:version="1.3.2 (091e20e, 2023-11-25, custom)"
   xmlns:inkscape="http://www.inkscape.org/namespaces/inkscape"
   xmlns:sodipodi="http://sodipodi.sourceforge.net/DTD/sodipodi-0.dtd"
   xmlns="http://www.w3.org/2000/svg"
   xmlns:svg="http://www.w3.org/2000/svg"><sodipodi:namedview
     id="namedview1"
     pagecolor="#ffffff"
     bordercolor="#999999"
     borderopacity="1"
     inkscape:showpageshadow="2"
     inkscape:pageopacity="0"
     inkscape:pagecheckerboard="0"
     inkscape:deskcolor="#d1d1d1"
     inkscape:document-units="mm"
     showguides="true"
     inkscape:zoom="0.1280329"
     inkscape:cx="6951.3383"
     inkscape:cy="-761.52301"
     inkscape:window-width="1920"
     inkscape:window-height="1009"
     inkscape:window-x="-8"
     inkscape:window-y="-8"
     inkscape:window-maximized="1"
     inkscape:current-layer="layer1"
     showgrid="false"><sodipodi:guide
       position="-1095.1277,66.731326"
       orientation="0,-1"
       id="guide25"
       inkscape:locked="false" /><sodipodi:guide
       position="-749.65685,-498.07733"
       orientation="0,-1"
       id="guide45"
       inkscape:locked="false" /><sodipodi:guide
       position="-702.85403,-449.8317"
       orientation="0,-1"
       id="guide46"
       inkscape:locked="false" /></sodipodi:namedview><defs
     id="defs1" /><g
     inkscape:label="Layer 1"
     inkscape:groupmode="layer"
     id="layer1"
     transform="translate(-1499.0276,531.05882)"><g
       id="g60"><g
         id="g56"
         transform="matrix(1.5384615,0,0,1.5384615,548.65881,-1127.6653)"><path
           id="path54"
           style="fill:#674ef8;fill-opacity:1;stroke-width:1.26659"
           d="m 617.73971,417.99413 v 43.59166 l 20.51244,29.86226 h -20.51244 v 26.34619 h 41.02437 v -39.81617 z"
           sodipodi:nodetypes="cccccccc" /><path
           style="fill:#674ef8;fill-opacity:1;stroke-width:1.01282"
           d="m 659.12972,387.79424 88.60999,130 H 706.34967 L 617.73971,387.79478 Z"
           id="path55" /><path
           id="path56"
           style="fill:#674ef8;fill-opacity:1;stroke-width:1.26659"
           d="m 747.73971,487.59435 v -43.59166 l -20.51244,-29.86226 h 20.51244 v -26.34619 h -41.02437 v 39.81617 z"
           sodipodi:nodetypes="cccccccc" /></g><g
         id="text1"
         style="font-weight:bold;font-size:181.05px;font-family:'Space Grotesk';-inkscape-font-specification:'Space Grotesk Bold';fill:#674ef8;stroke-width:57.0236"
         aria-label="NyoalAI."><path
           d="m 1773.0131,-367.26901 v -126.735 h 45.4436 l 25.1659,110.4405 h 3.2589 v -110.4405 h 23.5365 v 126.735 h -45.4435 l -25.166,-110.4405 h -3.2589 v 110.4405 z m 131.8045,36.21 v -19.9155 h 48.8835 q 5.0694,0 5.0694,-5.4315 v -22.63125 h -3.2589 q -1.4484,3.07785 -4.5263,6.1557 -3.0778,3.07785 -8.3283,5.0694 -5.2504,1.99155 -13.3977,1.99155 -10.5009,0 -18.4671,-4.7073 -7.7851,-4.88835 -12.1303,-13.3977 -4.3452,-8.50935 -4.3452,-19.5534 v -53.5908 h 22.8123 v 51.7803 q 0,10.1388 4.8883,15.2082 5.0694,5.0694 14.303,5.0694 10.5009,0 16.2945,-6.8799 5.7936,-7.06095 5.7936,-19.5534 v -45.6246 h 22.8123 v 105.7332 q 0,9.23355 -5.4315,14.66505 -5.4315,5.61255 -14.484,5.61255 z m 144.4777,-33.6753 q -13.3977,0 -24.0796,-5.4315 -10.682,-5.4315 -16.8377,-15.75135 -6.1557,-10.31985 -6.1557,-24.80385 v -2.8968 q 0,-14.484 6.1557,-24.80385 6.1557,-10.31985 16.8377,-15.75135 10.6819,-5.4315 24.0796,-5.4315 13.3977,0 24.0797,5.4315 10.6819,5.4315 16.8376,15.75135 6.1557,10.31985 6.1557,24.80385 v 2.8968 q 0,14.484 -6.1557,24.80385 -6.1557,10.31985 -16.8376,15.75135 -10.682,5.4315 -24.0797,5.4315 z m 0,-20.2776 q 10.5009,0 17.3808,-6.69885 6.8799,-6.8799 6.8799,-19.5534 v -1.8105 q 0,-12.6735 -6.8799,-19.37235 -6.6988,-6.8799 -17.3808,-6.8799 -10.5009,0 -17.3808,6.8799 -6.8799,6.69885 -6.8799,19.37235 v 1.8105 q 0,12.6735 6.8799,19.5534 6.8799,6.69885 17.3808,6.69885 z m 95.9564,20.2776 q -9.5956,0 -17.1997,-3.2589 -7.6041,-3.43995 -12.1304,-9.7767 -4.3452,-6.5178 -4.3452,-15.75135 0,-9.23355 4.3452,-15.38925 4.5263,-6.33675 12.3114,-9.4146 7.9662,-3.2589 18.105,-3.2589 h 24.6228 v -5.0694 q 0,-6.33675 -3.9831,-10.31985 -3.9831,-4.16415 -12.6735,-4.16415 -8.5093,0 -12.6735,3.9831 -4.1641,3.80205 -5.4315,9.95775 l -21.0018,-7.06095 q 2.1726,-6.8799 6.8799,-12.49245 4.8884,-5.7936 12.8546,-9.23355 8.1472,-3.621 19.7344,-3.621 17.7429,0 28.0628,8.87145 10.3198,8.87145 10.3198,25.7091 v 33.49425 q 0,5.4315 5.0694,5.4315 h 7.242 v 18.8292 h -15.2082 q -6.6988,0 -11.044,-3.2589 -4.3452,-3.2589 -4.3452,-8.6904 v -0.18105 h -3.44 q -0.7242,2.1726 -3.2589,5.7936 -2.5347,3.43995 -7.9662,6.1557 -5.4315,2.71575 -14.8461,2.71575 z m 3.9831,-18.4671 q 9.5957,0 15.5703,-5.25045 6.1557,-5.4315 6.1557,-14.30295 v -1.8105 h -22.9933 q -6.3368,0 -9.9578,2.71575 -3.621,2.71575 -3.621,7.6041 0,4.88835 3.8021,7.9662 3.802,3.07785 11.044,3.07785 z m 72.782,15.9324 v -126.735 h 22.8123 v 126.735 z"
           id="path1" /><path
           style="fill:#000000"
           d="m 2260.7616,-367.26901 33.3132,-126.735 h 41.6415 l 33.3132,126.735 h -24.6228 l -6.8799,-27.8817 h -45.2625 l -6.8799,27.8817 z m 37.1153,-49.9698 h 34.0374 l -15.3893,-61.73805 h -3.2589 z m 86.361,49.9698 v -126.735 h 23.8986 v 126.735 z m 63.0054,2.5347 q -7.4231,0 -12.4925,-4.7073 -4.8883,-4.88835 -4.8883,-12.49245 0,-7.6041 4.8883,-12.3114 5.0694,-4.88835 12.4925,-4.88835 7.242,0 12.1303,4.88835 4.8884,4.7073 4.8884,12.3114 0,7.6041 -4.8884,12.49245 -4.8883,4.7073 -12.1303,4.7073 z"
           id="path2" /></g></g></g></svg>
