<?xml version="1.0" encoding="UTF-8" standalone="no"?>
<!-- Created with Inkscape (http://www.inkscape.org/) -->

<svg
   width="153.09866mm"
   height="201.50615mm"
   viewBox="0 0 153.09866 201.50615"
   version="1.1"
   id="svg1"
   xml:space="preserve"
   sodipodi:docname="nyoal-ai.svg"
   inkscape:version="1.3.2 (091e20e, 2023-11-25, custom)"
   xmlns:inkscape="http://www.inkscape.org/namespaces/inkscape"
   xmlns:sodipodi="http://sodipodi.sourceforge.net/DTD/sodipodi-0.dtd"
   xmlns="http://www.w3.org/2000/svg"
   xmlns:svg="http://www.w3.org/2000/svg"><sodipodi:namedview
     id="namedview1"
     pagecolor="#ffffff"
     bordercolor="#999999"
     borderopacity="1"
     inkscape:showpageshadow="2"
     inkscape:pageopacity="0"
     inkscape:pagecheckerboard="0"
     inkscape:deskcolor="#d1d1d1"
     inkscape:document-units="mm"
     showguides="true"
     inkscape:zoom="0.1280329"
     inkscape:cx="6951.3383"
     inkscape:cy="-761.52301"
     inkscape:window-width="1920"
     inkscape:window-height="1009"
     inkscape:window-x="-8"
     inkscape:window-y="-8"
     inkscape:window-maximized="1"
     inkscape:current-layer="layer1"
     showgrid="false"><sodipodi:guide
       position="-2142.0247,65.225283"
       orientation="0,-1"
       id="guide25"
       inkscape:locked="false" /><sodipodi:guide
       position="-1796.5538,-499.58338"
       orientation="0,-1"
       id="guide45"
       inkscape:locked="false" /><sodipodi:guide
       position="-1749.751,-451.33774"
       orientation="0,-1"
       id="guide46"
       inkscape:locked="false" /></sodipodi:namedview><defs
     id="defs1" /><g
     inkscape:label="Layer 1"
     inkscape:groupmode="layer"
     id="layer1"
     transform="translate(-2545.9246,532.56487)"><g
       id="g61"><g
         id="g59"
         transform="matrix(1.1767227,0,0,1.1767227,1819.0163,-988.89113)"><path
           id="path57"
           style="fill:#674ef8;fill-opacity:1;stroke-width:1.26659"
           d="m 617.73971,417.99413 v 43.59166 l 20.51244,29.86226 h -20.51244 v 26.34619 h 41.02437 v -39.81617 z"
           sodipodi:nodetypes="cccccccc" /><path
           style="fill:#674ef8;fill-opacity:1;stroke-width:1.01282"
           d="m 659.12972,387.79424 88.60999,130 H 706.34967 L 617.73971,387.79478 Z"
           id="path58" /><path
           id="path59"
           style="fill:#674ef8;fill-opacity:1;stroke-width:1.26659"
           d="m 747.73971,487.59435 v -43.59166 l -20.51244,-29.86226 h 20.51244 v -26.34619 h -41.02437 v 39.81617 z"
           sodipodi:nodetypes="cccccccc" /></g><g
         id="text23"
         style="font-weight:bold;font-size:40.0665px;font-family:'Space Grotesk';-inkscape-font-specification:'Space Grotesk Bold';fill:#674ef8;stroke-width:12.6194"
         aria-label="NyoalAI."><path
           d="m 2546.0494,-339.07199 v -28.04655 h 10.0567 l 5.5693,24.44056 h 0.7212 v -24.44056 h 5.2086 v 28.04655 h -10.0567 l -5.5692,-24.44057 h -0.7212 v 24.44057 z m 29.1684,8.0133 v -4.40732 h 10.818 q 1.1219,0 1.1219,-1.20199 v -5.00831 h -0.7212 q -0.3206,0.68113 -1.0017,1.36226 -0.6811,0.68113 -1.8431,1.12186 -1.1619,0.44073 -2.9649,0.44073 -2.3238,0 -4.0868,-1.04173 -1.7228,-1.08179 -2.6844,-2.96492 -0.9616,-1.88312 -0.9616,-4.32718 v -11.85969 h 5.0484 v 11.45902 q 0,2.24373 1.0818,3.36559 1.1218,1.12186 3.1652,1.12186 2.3239,0 3.606,-1.52253 1.2821,-1.56259 1.2821,-4.32718 v -10.09676 h 5.0484 v 23.39884 q 0,2.04339 -1.202,3.24539 -1.202,1.24206 -3.2053,1.24206 z m 31.9731,-7.45237 q -2.965,0 -5.3289,-1.20199 -2.3639,-1.202 -3.7262,-3.48579 -1.3622,-2.28379 -1.3622,-5.48911 v -0.64107 q 0,-3.20532 1.3622,-5.48911 1.3623,-2.28379 3.7262,-3.48578 2.3639,-1.202 5.3289,-1.202 2.9649,0 5.3288,1.202 2.3639,1.20199 3.7262,3.48578 1.3623,2.28379 1.3623,5.48911 v 0.64107 q 0,3.20532 -1.3623,5.48911 -1.3623,2.28379 -3.7262,3.48579 -2.3639,1.20199 -5.3288,1.20199 z m 0,-4.48745 q 2.3238,0 3.8464,-1.48246 1.5225,-1.52253 1.5225,-4.32718 v -0.40067 q 0,-2.80465 -1.5225,-4.28711 -1.4825,-1.52253 -3.8464,-1.52253 -2.3239,0 -3.8464,1.52253 -1.5225,1.48246 -1.5225,4.28711 v 0.40067 q 0,2.80465 1.5225,4.32718 1.5225,1.48246 3.8464,1.48246 z m 21.2352,4.48745 q -2.1235,0 -3.8063,-0.7212 -1.6828,-0.76126 -2.6845,-2.16359 -0.9616,-1.44239 -0.9616,-3.48578 0,-2.0434 0.9616,-3.40566 1.0017,-1.40232 2.7245,-2.08345 1.763,-0.7212 4.0067,-0.7212 h 5.449 v -1.12186 q 0,-1.40233 -0.8814,-2.28379 -0.8815,-0.92153 -2.8047,-0.92153 -1.8831,0 -2.8046,0.88146 -0.9216,0.8414 -1.202,2.20366 l -4.6477,-1.5626 q 0.4808,-1.52252 1.5225,-2.76459 1.0818,-1.28212 2.8447,-2.04339 1.803,-0.80133 4.3673,-0.80133 3.9265,0 6.2103,1.96326 2.2838,1.96326 2.2838,5.68945 v 7.4123 q 0,1.20199 1.1218,1.20199 h 1.6027 v 4.16692 h -3.3656 q -1.4825,0 -2.4441,-0.7212 -0.9616,-0.7212 -0.9616,-1.92319 v -0.0401 h -0.7612 q -0.1603,0.4808 -0.7212,1.28213 -0.561,0.76127 -1.7629,1.36226 -1.202,0.601 -3.2855,0.601 z m 0.8815,-4.08678 q 2.1235,0 3.4457,-1.16193 1.3622,-1.202 1.3622,-3.16526 v -0.40066 h -5.0884 q -1.4023,0 -2.2037,0.601 -0.8013,0.60099 -0.8013,1.68279 0,1.0818 0.8414,1.76293 0.8414,0.68113 2.4441,0.68113 z m 16.1067,3.52585 v -28.04655 h 5.0483 v 28.04655 z"
           id="path3" /><path
           style="fill:#000000"
           d="m 2653.9885,-339.07199 7.3723,-28.04655 h 9.2153 l 7.3722,28.04655 h -5.4491 l -1.5225,-6.17024 h -10.0166 l -1.5225,6.17024 z m 8.2137,-11.05836 h 7.5325 l -3.4057,-13.66267 h -0.7212 z m 19.1117,11.05836 v -28.04655 h 5.2888 v 28.04655 z m 13.9431,0.56093 q -1.6427,0 -2.7645,-1.04173 -1.0818,-1.08179 -1.0818,-2.76459 0,-1.68279 1.0818,-2.72452 1.1218,-1.0818 2.7645,-1.0818 1.6027,0 2.6845,1.0818 1.0818,1.04173 1.0818,2.72452 0,1.6828 -1.0818,2.76459 -1.0818,1.04173 -2.6845,1.04173 z"
           id="path4" /></g></g></g></svg>
